<svg xmlns="http://www.w3.org/2000/svg" xmlns:xlink="http://www.w3.org/1999/xlink" width="260" height="262.09" viewBox="0 0 260 262.09">
  <defs>
    <linearGradient id="linear-gradient" x1="0.5" y1="1" x2="0.5" gradientUnits="objectBoundingBox">
      <stop offset="0" stop-color="#ff4000"/>
      <stop offset="1" stop-color="#ffb301"/>
    </linearGradient>
  </defs>
  <g id="Group_9" data-name="Group 9" transform="translate(-169.005 -59.298)">
    <g id="Group_4" data-name="Group 4">
      <text id="MobiBattle" transform="translate(299.006 288.387)" fill="#ff4000" font-size="52" font-family="Barlow-ExtraBold, Barlow" font-weight="800"><tspan x="-125.19" y="0">MobiBattle</tspan></text>
      <text id="MOBILE_PREMIER_LEAGUE" data-name="MOBILE PREMIER LEAGUE" transform="translate(299.005 316.387)" fill="#958073" font-size="20" font-family="Helvetica"><tspan x="-129.478" y="0">MOBILE PREMIER LEAGUE</tspan></text>
      <g id="Group_3" data-name="Group 3">
        <path id="Path_1" data-name="Path 1" d="M342.836,185.928c3.024-24.8-.586-39.12-.586-39.12s1.68-1.235,4.492,2.882c2.623-3.91-3.04-6.489-3.04-6.489s5.616-3.574,4.8-9.765c-2.338,4.334-4.882,4.421-4.882,4.421s3.288-5.1.916-9.755l-3.3,5.1c5.486-17.177-26.659-20.707-26.734-34.441,0,0,1.375-6.89,9.138-5.746-2.559-7.091-10.369-2.732-10.369-2.732.191-5.846,10.225-11.42,18.214-2.314,1.792-4.508-.214-8.321-4.636-11.345-10.083-6.895-28.851,4.258-28.851,4.258s.1-18.512,20.924-15.851c-2.488-6.049-10.6-6.779-17.58-4.653a34.159,34.159,0,0,0-24.37,27.642s-5.317-3.58-2.511-11.587c-8,1.886-8.586,22.364-8.586,22.364s-6.111-.423-8.1-12.286c-16.668,28.456,2.009,47.654,2.009,47.654s-8.753-.115-14.286-13.125a23.156,23.156,0,0,0,6.9,20.826s-1.742,1.288-5.637,1.185c1.108,3.82,6.084,4.944,7.764,7.82-3.472,8.784-2.657,22.061-.255,35.29C230.772,192.906,223.794,234,244.127,234c12.217,0,8.892-8.065,8.892-8.065s-.007-.03-.024-.087a3.328,3.328,0,0,0,2.519-.567,2.42,2.42,0,0,0,1.155-3.545s-2.049-4.717-5.648-7.037c-.6-6.938-.01-15.261,5.135-19.4a295.212,295.212,0,0,0,10.835,35.663s3.015,3.042,11.3,3.042,5.153-3.042,5.153-3.042-5.657-11.634,16.144-11.634,15.749,11.634,15.749,11.634S313.715,234,321.163,234s10.721-3.042,10.721-3.042A215.416,215.416,0,0,0,341.493,195c5.49,4.035,6.113,12.6,5.5,19.7-3.6,2.32-5.648,7.037-5.648,7.037a2.42,2.42,0,0,0,1.155,3.545,3.328,3.328,0,0,0,2.519.567c-.017.057-.024.087-.024.087S341.667,234,353.884,234C374.476,234,367.054,191.856,342.836,185.928Z" fill="url(#linear-gradient)"/>
        <path id="Path_2" data-name="Path 2" d="M336.191,166.472c-2.115-10.459-11.344-14.966-20.608-15.819-15.32-1.511-38.358-.088-45.715,3.661-5.837,2.975-10.681,9.116-10.11,15.9.584,6.957,7.174,10.2,13.13,11.748,9.457,2.462,40.02,2.087,45.448,1.554C328.214,182.547,338.557,178.175,336.191,166.472Z" fill="#fff"/>
        <g id="Group_2" data-name="Group 2">
          <g id="Group_1" data-name="Group 1">
            <path id="Path_3" data-name="Path 3" d="M279.575,167.69a5.657,5.657,0,0,1-11.313,0C268.262,164.565,279.575,164.565,279.575,167.69Z" fill="#539fc9"/>
            <path id="Path_4" data-name="Path 4" d="M329.9,167.69a5.657,5.657,0,1,1-5.658-5.658A5.657,5.657,0,0,1,329.9,167.69Z" fill="#539fc9"/>
          </g>
        </g>
      </g>
    </g>
  </g>
</svg>
