<?xml version="1.0" encoding="utf-8"?>
<!-- Generator: Adobe Illustrator 23.0.1, SVG Export Plug-In . SVG Version: 6.00 Build 0)  -->
<svg version="1.1" id="Ebene_1" xmlns="http://www.w3.org/2000/svg" xmlns:xlink="http://www.w3.org/1999/xlink" x="0px" y="0px"
	 viewBox="0 0 250 250" style="enable-background:new 0 0 250 250;" xml:space="preserve">
<style type="text/css">
	.st0{fill:#48B89E;}
</style>
<title>Zeichenfläche 3</title>
<path class="st0" d="M47.7,185.4h154.6c4,0,7.2-2.6,7.2-5.8s-3.3-5.8-7.2-5.8H47.7c-4,0-7.2,2.6-7.2,5.8S43.7,185.4,47.7,185.4z"/>
<path class="st0" d="M47.7,130.8h154.6c4,0,7.2-2.6,7.2-5.8s-3.3-5.8-7.2-5.8H47.7c-4,0-7.2,2.6-7.2,5.8
	C40.5,128.2,43.7,130.8,47.7,130.8z"/>
<path class="st0" d="M47.7,76.1h154.6c4,0,7.2-2.6,7.2-5.8s-3.3-5.8-7.2-5.8H47.7c-4,0-7.2,2.6-7.2,5.8S43.7,76.1,47.7,76.1z"/>
</svg>
